<?xml version="1.0" standalone="no"?>
<!DOCTYPE svg PUBLIC "-//W3C//DTD SVG 20010904//EN"
 "http://www.w3.org/TR/2001/REC-SVG-20010904/DTD/svg10.dtd">
<svg version="1.0" xmlns="http://www.w3.org/2000/svg"
 width="337.000000pt" height="289.000000pt" viewBox="0 0 337.000000 289.000000"
 preserveAspectRatio="xMidYMid meet">
<metadata>
Created by potrace 1.16, written by Peter Selinger 2001-2019
</metadata>
<g transform="translate(0.000000,289.000000) scale(0.100000,-0.100000)"
fill="#000000" stroke="none">
<path d="M1575 2830 c-57 -3 -115 -13 -135 -22 -27 -13 -85 -18 -265 -23 -272
-7 -475 -27 -640 -60 -169 -34 -222 -51 -228 -74 -10 -40 6 -44 89 -18 44 13
93 27 109 31 26 6 24 3 -14 -19 -95 -55 -141 -95 -141 -123 0 -19 -9 -33 -30
-47 -17 -11 -43 -38 -59 -60 -81 -113 -63 -255 45 -354 31 -28 59 -51 63 -51
4 0 8 -22 9 -49 1 -70 31 -220 52 -266 14 -30 20 -72 24 -170 2 -71 9 -145 15
-163 8 -26 7 -34 -4 -38 -26 -11 -25 -39 14 -213 27 -121 43 -176 55 -183 9
-5 16 -21 16 -35 0 -15 10 -62 21 -105 16 -58 18 -82 10 -92 -13 -16 0 -96 29
-182 24 -68 34 -81 76 -99 18 -7 45 -28 61 -46 49 -56 111 -89 165 -89 44 0
77 -12 148 -52 40 -23 90 -42 140 -55 67 -17 415 -28 515 -16 54 7 89 5 155
-9 207 -42 276 -35 460 52 58 28 117 50 130 50 41 0 157 28 195 46 24 11 50
40 85 93 27 42 50 82 50 89 0 7 9 23 20 35 18 19 21 33 19 103 -1 45 1 86 4
92 12 18 38 216 35 262 -1 29 4 57 16 79 10 20 21 70 26 125 5 50 15 115 24
144 8 29 17 95 19 146 2 51 6 97 9 102 24 41 61 286 56 371 l-3 52 65 33 c37
19 77 49 95 72 l30 38 -2 134 c-2 142 -18 228 -50 257 -55 49 -221 107 -309
107 -23 0 -61 9 -85 20 -24 11 -61 20 -82 20 -20 0 -67 14 -104 30 -95 43
-180 68 -280 80 -49 6 -133 17 -188 25 -90 13 -166 19 -365 29 -36 2 -110 0
-165 -4z m383 -40 c97 -24 255 -78 382 -130 116 -47 136 -57 275 -133 61 -34
126 -69 145 -79 19 -9 29 -17 21 -18 -42 -1 -152 40 -289 110 -347 174 -628
252 -910 252 -68 0 -121 2 -118 5 11 12 168 21 288 18 83 -3 154 -11 206 -25z
m271 -20 c52 -10 99 -16 104 -13 6 4 7 1 2 -7 -5 -9 -2 -10 13 -6 12 4 40 2
64 -4 75 -20 198 -71 193 -80 -3 -4 3 -6 12 -4 10 3 27 -2 38 -11 11 -9 14
-13 6 -9 -9 5 -12 3 -7 -5 4 -6 12 -9 17 -6 11 8 81 -45 170 -129 82 -78 67
-88 -31 -22 -155 104 -422 230 -600 281 -129 38 -122 44 19 15z m-702 -1 c209
-17 506 -83 668 -148 73 -29 22 -27 -107 4 -351 85 -765 122 -1058 95 -57 -5
-24 -6 100 -3 270 8 565 -23 885 -91 149 -32 105 -31 -190 4 -401 48 -555 56
-789 41 -111 -7 -223 -17 -251 -21 -30 -5 -7 -5 55 -1 58 3 236 6 395 5 264 0
313 -3 546 -32 140 -18 271 -32 290 -33 28 0 30 -2 14 -9 -34 -15 -146 -11
-300 10 -81 11 -215 25 -299 31 -197 15 -644 6 -783 -16 -104 -16 -249 -55
-280 -75 -17 -11 -17 -11 0 -6 57 18 66 15 22 -7 -27 -14 -59 -32 -70 -41 -11
-9 7 -3 40 14 86 44 155 60 275 64 58 3 89 2 70 0 -105 -13 -299 -68 -287 -81
3 -2 36 5 74 17 79 25 209 52 197 40 -5 -4 -49 -19 -99 -34 -168 -52 -230 -82
-285 -143 -56 -61 -85 -136 -78 -205 3 -34 2 -37 -9 -22 -30 41 -11 145 42
226 l35 53 -41 -44 c-23 -26 -45 -63 -52 -88 -6 -24 -15 -43 -19 -43 -10 0
-10 5 3 59 5 24 19 58 31 75 l22 31 -23 -20 -24 -20 16 30 c17 34 81 97 115
114 12 7 22 18 22 26 0 7 24 27 53 44 63 37 54 40 -17 6 l-51 -25 30 25 c17
14 71 45 120 69 152 75 373 120 640 129 190 7 231 6 352 -4z m1261 -154 c84
-42 172 -132 228 -231 30 -54 39 -63 46 -50 15 28 -1 72 -45 122 -43 49 -146
138 -169 147 -7 2 -10 7 -7 11 4 4 24 0 44 -8 20 -9 41 -13 46 -10 11 7 64
-10 142 -44 46 -20 62 -33 78 -63 24 -49 24 -79 -2 -140 -25 -58 -31 -59 -19
-3 13 59 -1 96 -57 149 -51 49 -130 101 -139 92 -3 -3 7 -12 23 -20 42 -22
107 -92 138 -149 25 -47 27 -53 15 -92 -29 -100 -94 -163 -228 -221 -88 -38
-263 -88 -290 -83 -9 2 17 12 58 22 87 21 238 74 245 86 3 5 -37 -7 -89 -25
-51 -19 -122 -41 -157 -50 -35 -9 -68 -20 -74 -25 -16 -13 -131 -22 -177 -15
-39 7 -28 10 122 41 182 37 295 72 354 111 55 36 126 103 126 120 0 8 5 11 10
8 21 -13 9 -47 -32 -93 -42 -46 -30 -43 25 7 33 30 36 75 8 129 -26 50 -235
250 -306 294 -56 34 6 21 83 -17z m-1138 -32 c85 -8 190 -18 233 -22 42 -3 78
-8 78 -11 3 -24 -26 -100 -40 -105 -95 -30 -748 -68 -790 -46 -16 9 -20 23
-23 87 -4 98 4 106 115 115 100 8 222 3 427 -18z m-561 -56 c13 -73 14 -137 3
-152 -4 -6 -34 -18 -67 -27 -33 -9 -67 -20 -77 -23 -13 -5 -19 4 -31 47 -9 29
-19 83 -22 119 l-7 65 74 13 c40 7 80 14 88 16 8 1 18 3 21 4 4 0 12 -27 18
-62z m1067 6 c-16 -90 -37 -145 -52 -139 -9 3 -47 6 -85 6 -79 0 -80 2 -56 95
l13 50 80 11 c43 6 85 12 93 13 10 1 12 -8 7 -36z m349 -40 l90 -29 3 -47 c3
-44 1 -48 -25 -58 -40 -16 -250 -4 -346 19 -43 11 -80 21 -82 24 -4 3 15 75
30 117 10 25 222 8 330 -26z m-1639 19 c13 -8 38 -167 29 -181 -3 -5 -22 -15
-43 -22 -70 -22 -161 -67 -201 -99 -44 -35 -41 -36 -118 23 -33 24 -53 47 -53
60 0 69 147 177 288 211 68 17 83 18 98 8z m1838 -79 l38 -6 -6 -66 c-4 -36
-10 -69 -14 -73 -4 -3 -29 1 -57 9 l-50 16 0 69 c0 69 0 69 25 63 14 -3 42 -8
64 -12z m213 -54 c74 -33 91 -57 67 -97 -9 -15 -29 -37 -45 -50 l-28 -23 -52
26 c-28 15 -53 24 -56 21 -7 -7 -63 15 -63 25 0 5 15 2 33 -7 l32 -16 -28 24
c-28 23 -29 26 -22 81 l7 56 47 -6 c25 -3 74 -19 108 -34z m-2497 -16 c-42
-79 -21 -167 62 -258 82 -89 160 -145 302 -216 66 -33 122 -62 124 -64 6 -6
-185 52 -198 60 -7 4 -25 9 -41 11 -15 2 -67 22 -115 44 -48 22 -92 40 -98 40
-6 0 -31 13 -55 29 -55 37 -101 103 -101 145 l1 31 19 -37 c11 -20 45 -63 76
-95 l56 -58 -46 55 c-26 30 -58 79 -73 108 -24 49 -25 57 -14 94 l13 41 23
-68 c24 -67 92 -182 102 -172 3 3 -4 19 -16 35 -42 59 -81 156 -81 201 0 37 5
49 36 77 19 19 37 34 40 34 2 0 -5 -17 -16 -37z m1253 10 c3 -16 1 -67 -5
-114 l-10 -87 -110 -7 c-60 -4 -111 -5 -114 -3 -9 9 -24 113 -24 164 l0 53 53
5 c28 4 79 8 112 9 33 2 67 4 76 5 11 1 19 -8 22 -25z m-279 -9 c11 -30 6
-151 -6 -162 -21 -17 -86 -31 -227 -48 -117 -14 -221 -36 -272 -58 -14 -6 -18
3 -24 60 -4 38 -11 78 -15 90 -8 20 -4 24 33 39 95 39 237 77 312 84 140 14
192 13 199 -5z m821 2 c35 -10 42 -15 25 -16 -23 -1 -23 -2 -5 -9 18 -8 20
-16 17 -75 -3 -62 -6 -68 -30 -78 -30 -12 -522 -2 -534 10 -4 4 -5 44 -1 89 5
73 8 82 27 86 12 2 118 5 236 5 156 1 229 -2 265 -12z m214 -32 c2 -2 -2 -46
-10 -96 l-15 -93 -63 -3 c-35 -2 -68 1 -74 7 -6 6 -7 46 -2 106 l7 97 76 -7
c43 -4 79 -9 81 -11z m-1984 -34 c12 -39 106 -108 237 -175 81 -41 193 -111
287 -179 85 -61 182 -125 215 -143 69 -36 68 -36 -28 -23 -75 11 -64 5 -281
175 -45 36 -114 74 -199 112 -104 47 -141 69 -193 117 -57 52 -63 62 -63 97 0
41 14 52 25 19z m2261 -35 c72 -24 144 -50 160 -58 l28 -15 -50 -25 c-27 -14
-75 -33 -106 -41 -54 -16 -58 -16 -164 10 -151 37 -148 34 -139 101 4 31 9 63
12 71 9 23 109 7 259 -43z m-1869 -26 c13 -37 18 -183 6 -177 -151 71 -186
100 -170 142 6 16 126 78 141 73 6 -2 16 -19 23 -38z m2353 -43 c0 -14 -7 -31
-15 -39 -29 -30 -273 -107 -385 -122 -45 -6 -39 -3 253 112 37 14 82 37 100
49 41 29 47 29 47 0z m-2490 -171 c107 -59 215 -124 238 -144 24 -20 58 -46
75 -58 17 -13 25 -23 17 -23 -26 0 -307 137 -378 184 -77 51 -185 154 -208
198 -14 27 -12 26 23 -9 22 -22 124 -86 233 -148z m1393 115 c5 -15 5 -35 -1
-50 -9 -24 -12 -25 -96 -22 -81 3 -86 5 -92 28 -3 13 -3 35 0 49 6 25 8 26 94
23 82 -3 87 -4 95 -28z m-366 -1 c108 -14 150 -26 157 -46 4 -9 5 -17 3 -19
-2 -2 -39 -9 -83 -14 -43 -6 -127 -22 -186 -36 l-107 -25 -167 20 c-92 12
-168 22 -169 23 -1 2 -5 15 -9 30 -6 25 -3 27 47 38 161 37 370 49 514 29z
m1438 -33 c-40 -60 -162 -110 -331 -136 -59 -9 -101 -9 -178 0 -55 6 -105 15
-111 18 -5 4 61 14 148 24 179 19 280 42 399 90 46 19 84 33 86 32 2 -1 -4
-14 -13 -28z m-764 12 c57 -6 135 -11 172 -12 l68 0 -42 -12 c-24 -7 -98 -23
-164 -35 -113 -21 -129 -22 -227 -9 l-106 13 10 28 c5 15 17 30 26 32 34 9
162 7 263 -5z m-151 -92 c432 -82 528 -92 644 -66 27 6 50 9 53 7 2 -2 -28
-21 -66 -41 -78 -41 -103 -43 -231 -22 -150 25 -156 26 -80 6 41 -11 109 -23
150 -27 41 -3 68 -8 60 -10 -8 -3 -25 -9 -37 -15 -39 -19 -160 -3 -293 40
-199 65 -277 77 -490 77 -102 0 -197 -4 -212 -8 -16 -4 -28 -3 -28 2 0 12 159
31 286 32 105 2 107 2 44 10 -74 9 -229 -3 -327 -26 -48 -11 -69 -12 -79 -4
-7 6 -22 8 -34 4 -11 -3 -20 -2 -20 3 0 15 74 33 235 56 59 9 351 -4 425 -18z
m-1160 -10 c111 -7 534 -60 675 -85 123 -22 282 -57 431 -97 54 -15 137 -34
184 -44 l85 -17 -53 -12 c-77 -16 -145 -14 -199 8 -76 29 -211 58 -433 90
-113 17 -297 46 -410 65 -113 19 -250 40 -305 46 -96 11 -145 25 -145 41 0 10
29 17 60 13 14 -2 63 -5 110 -8z m-426 -138 l45 -12 7 -55 c3 -31 14 -103 24
-161 10 -58 17 -106 16 -107 -2 -2 -29 4 -61 12 -73 19 -164 67 -216 114 -37
33 -41 43 -53 116 -29 170 -28 168 -9 161 17 -6 17 -5 1 8 -47 36 -7 30 92
-15 60 -27 130 -54 154 -61z m526 50 c74 -12 150 -21 168 -20 18 0 30 -4 26
-9 -3 -6 12 -7 38 -4 33 3 37 3 18 -4 -14 -5 -21 -9 -16 -10 4 -1 74 -12 155
-25 80 -14 175 -27 211 -30 36 -3 -4 6 -89 19 -85 14 -173 29 -195 35 l-41 10
45 -6 c71 -8 427 -61 505 -75 55 -9 66 -14 50 -21 -14 -6 -8 -7 20 -3 25 3 35
1 26 -4 -10 -6 3 -13 42 -21 31 -7 54 -17 51 -22 -3 -4 -74 -8 -158 -8 -120 0
-193 6 -347 30 -465 73 -567 97 -639 150 -69 51 -70 53 -35 46 17 -3 91 -16
165 -28z m948 8 c46 -9 127 -27 180 -42 53 -15 144 -39 202 -54 l104 -27 -48
-6 c-79 -11 -146 -8 -231 12 -99 23 -489 120 -530 132 -49 14 231 1 323 -15z
m868 -1 c11 -43 -27 -273 -56 -342 -5 -12 -26 -29 -46 -38 -44 -18 -146 -36
-155 -27 -5 5 22 278 30 319 1 2 31 18 69 37 37 19 81 44 97 55 39 27 53 26
61 -4z m-2145 -127 c5 -7 9 -33 9 -58 1 -25 9 -99 19 -165 10 -66 17 -121 16
-123 -1 -1 -26 3 -55 10 -44 10 -55 17 -66 43 -16 40 -41 171 -50 267 l-7 77
63 -19 c35 -11 67 -25 71 -32z m419 8 c90 -22 237 -48 430 -74 l65 -9 -105 -2
c-188 -1 -384 35 -472 89 -41 25 -40 25 82 -4z m1437 -10 c-21 -16 -149 -52
-251 -71 -39 -7 -60 -13 -48 -14 37 -2 218 37 275 59 29 11 54 20 56 20 7 0
-9 -189 -18 -212 -26 -68 -148 -134 -325 -176 -93 -22 -134 -26 -256 -26 -93
0 -155 4 -174 12 l-29 13 6 111 c9 148 9 148 165 168 66 9 65 9 -18 4 -46 -3
-97 -11 -113 -19 -20 -10 -27 -11 -24 -2 7 23 52 37 120 37 149 0 366 35 532
84 44 13 89 24 100 25 19 0 19 0 2 -13z m-1729 -15 c48 -11 152 -27 232 -35
80 -9 174 -23 210 -30 36 -8 115 -19 177 -24 126 -10 157 -23 167 -73 11 -57
7 -194 -7 -213 -18 -24 -81 -35 -208 -36 -310 -1 -608 69 -647 153 -7 15 -16
77 -19 137 l-6 110 29 1 c27 2 27 2 4 6 -27 5 -52 23 -32 23 7 0 52 -9 100
-19z m952 -266 l-2 -175 -74 0 -74 0 0 175 0 175 75 0 76 0 -1 -175z m-1430
99 c22 -15 40 -29 40 -33 1 -23 40 -301 45 -323 9 -34 5 -34 -46 -5 -42 23
-50 42 -68 149 -12 69 -23 238 -16 238 3 0 23 -12 45 -26z m76 -55 c4 -7 43
-29 88 -49 87 -41 237 -81 376 -101 124 -17 135 -31 20 -25 -52 3 -113 8 -135
11 l-40 5 40 -11 c22 -6 83 -14 135 -17 l95 -7 6 -80 c3 -44 9 -101 13 -126
l7 -47 -45 -17 c-36 -14 -60 -16 -113 -10 -134 14 -320 82 -394 145 -27 22
-32 36 -49 135 -11 61 -20 122 -20 136 l0 27 63 -34 c82 -44 97 -43 21 2 -63
38 -106 74 -87 74 7 0 15 -5 19 -11z m2354 -51 c-1 -63 -29 -232 -41 -243 -8
-7 -84 -41 -169 -75 -112 -45 -173 -64 -219 -68 l-63 -5 7 124 c4 71 12 129
18 136 7 6 59 21 117 33 121 25 208 50 280 81 71 31 57 34 -17 4 -70 -29 -308
-88 -332 -83 -9 2 16 12 54 22 39 10 104 29 145 42 89 28 178 52 203 53 11 1
17 -6 17 -21z m-1586 -177 c8 -39 28 -292 24 -297 -6 -5 -148 22 -155 30 -4 3
-12 57 -19 118 -7 62 -16 134 -19 159 l-6 45 85 -14 c78 -14 86 -17 90 -41z
m1088 -33 c-2 -51 -6 -122 -10 -158 l-7 -64 -69 -14 c-37 -7 -72 -10 -76 -5
-6 6 3 211 12 288 2 15 15 22 58 31 102 22 95 27 92 -78z m-902 -1 c133 -27
281 -40 395 -34 126 7 250 29 294 51 16 9 32 16 34 16 3 0 3 -51 0 -112 -5
-112 -5 -113 -36 -141 -47 -40 -121 -64 -243 -78 -198 -21 -383 4 -514 69 -86
43 -84 38 -93 190 l-7 102 47 -24 c27 -13 82 -31 123 -39z m135 33 c142 -26
487 -10 578 25 9 4 17 3 17 -3 0 -14 -77 -41 -171 -58 -114 -20 -358 -20 -475
0 -104 18 -194 43 -194 54 0 9 154 -2 245 -18z m-1044 -135 c77 -27 169 -69
169 -78 0 -10 -60 1 -115 20 -22 8 -35 10 -30 5 13 -12 103 -42 126 -42 18 0
20 -6 34 -137 3 -27 8 -66 11 -87 l6 -39 -46 6 c-70 10 -246 86 -257 111 -13
32 -69 318 -64 327 3 4 32 -10 64 -32 32 -21 78 -46 102 -54z m2258 -50 c-5
-68 -12 -94 -32 -124 -25 -37 -135 -131 -155 -131 -5 0 -6 20 -1 48 4 26 8 83
8 127 l1 80 88 42 c48 22 89 42 92 42 3 1 3 -37 -1 -84z m-204 -133 c-7 -98
-9 -108 -35 -132 -80 -75 -319 -148 -511 -157 -64 -3 -133 -3 -153 1 l-36 7 0
122 0 123 93 -2 c81 -2 84 -1 27 5 -64 6 -62 7 155 43 126 21 262 50 318 68
54 18 100 30 103 27 3 -2 -23 -16 -58 -30 -35 -14 -58 -26 -51 -27 21 0 117
46 133 64 21 26 23 9 15 -112z m-1806 91 c31 -9 57 -18 58 -18 4 -2 42 -290
38 -293 -1 -1 -29 3 -61 10 l-59 13 -17 120 c-9 66 -19 135 -22 153 -6 37 -8
37 63 15z m180 -63 c58 -15 260 -50 286 -49 11 0 -38 12 -110 25 -71 13 -150
30 -175 38 l-45 14 42 1 c23 1 82 -8 130 -20 114 -26 279 -49 367 -49 38 0 99
-6 135 -12 l66 -13 -60 -6 -60 -6 57 -1 c31 -1 60 3 63 8 18 29 25 -1 25 -110
l0 -119 -42 -12 c-62 -17 -321 -14 -469 5 -116 15 -235 43 -267 64 -8 6 -19
55 -27 128 -20 166 -21 157 13 140 15 -8 47 -19 71 -26z m871 -194 l0 -133
-131 -7 c-72 -4 -133 -5 -137 -2 -3 3 10 6 29 6 19 0 50 3 69 6 l36 6 -4 64
c-2 35 -1 93 3 129 l7 65 64 0 64 0 0 -134z m922 58 c-5 -98 -30 -196 -60
-239 -36 -52 -113 -103 -210 -140 -72 -28 -163 -40 -170 -22 -2 4 -1 61 3 126
l7 118 52 6 c53 6 130 26 124 32 -2 2 -30 -3 -63 -11 -111 -26 -101 -13 22 29
118 40 208 92 259 148 28 32 39 17 36 -47z m-2194 -121 c6 -48 18 -109 26
-135 8 -27 11 -48 7 -48 -17 0 -72 69 -86 110 -15 41 -45 169 -45 190 0 5 19
0 43 -10 l42 -19 13 -88z m156 28 c58 -17 147 -37 198 -47 51 -9 97 -20 102
-25 6 -5 35 -9 67 -9 l56 0 18 -134 c9 -73 15 -142 13 -152 -3 -17 -13 -19
-88 -18 -68 1 -104 7 -180 34 -107 37 -250 104 -279 131 -18 17 -51 158 -51
217 0 19 3 21 19 12 11 -5 23 -10 28 -10 4 1 -4 8 -19 16 -16 8 -28 19 -28 25
0 6 6 6 19 0 10 -6 66 -24 125 -40z m1582 -148 c-4 -49 -9 -118 -12 -154 l-6
-66 -70 -13 c-38 -6 -71 -10 -72 -9 -4 5 11 211 20 262 5 30 11 38 32 43 15 3
41 10 57 14 58 16 57 18 51 -77z m-1031 47 c17 0 35 -4 42 -8 6 -4 16 -58 23
-127 6 -66 13 -137 17 -159 l6 -38 -74 7 c-41 4 -77 10 -81 14 -3 3 -11 60
-17 126 -7 66 -14 137 -17 159 l-5 39 38 -7 c21 -3 52 -6 68 -6z m871 -57 c-3
-32 -8 -94 -12 -139 -3 -44 -9 -86 -13 -92 -4 -7 -68 -21 -142 -33 -112 -17
-162 -20 -304 -16 -230 8 -300 28 -309 90 -3 18 -8 72 -12 121 -5 77 -4 88 9
83 19 -7 96 -19 82 -13 -5 3 -29 10 -52 16 -24 6 -43 15 -43 19 0 5 19 4 43
-1 44 -11 502 -2 632 11 39 5 83 9 98 9 l29 2 -6 -57z m-1620 -5 c19 -21 19
-21 -1 -15 -42 14 60 -63 136 -103 95 -49 105 -46 14 5 -36 20 -65 38 -65 41
0 6 34 -9 62 -28 15 -10 43 -25 63 -34 20 -8 33 -19 30 -24 -3 -6 -2 -10 4
-10 10 0 27 -127 18 -137 -4 -3 -23 4 -44 17 -20 12 -66 33 -102 46 -35 13
-70 29 -77 35 -24 20 -78 229 -59 229 1 0 10 -10 21 -22z m2194 -57 c0 -50 -4
-65 -26 -91 -22 -26 -90 -70 -109 -70 -3 0 -5 26 -5 58 0 55 1 58 34 76 19 10
49 33 67 52 18 19 34 34 36 34 2 0 3 -27 3 -59z m-150 -100 c0 -94 -101 -165
-310 -218 -165 -41 -337 -61 -380 -43 -28 12 -30 16 -30 70 l0 58 68 7 c58 6
286 43 377 62 67 13 12 -8 -81 -32 -54 -14 -79 -23 -54 -20 70 9 181 45 174
56 -3 6 0 10 7 9 21 -3 53 9 137 51 42 20 80 38 85 38 4 1 7 -16 7 -38z
m-1705 -30 l50 -19 6 -78 c3 -44 9 -87 14 -96 4 -10 5 -18 2 -18 -16 0 -101
56 -114 76 -17 26 -31 154 -17 154 5 0 32 -9 59 -19z m1785 -51 c-40 -79 -73
-106 -158 -129 -43 -12 -84 -21 -91 -21 -18 0 46 57 105 95 128 81 150 94 157
95 4 0 -2 -18 -13 -40z m-1445 -31 c28 -5 135 -12 239 -14 104 -3 191 -7 193
-9 2 -2 -33 -7 -79 -10 -91 -8 -265 5 -397 30 -46 8 -85 13 -88 11 -5 -6 140
-32 262 -48 84 -11 272 -7 337 7 26 6 26 5 30 -58 2 -34 3 -65 2 -66 -2 -2
-37 -9 -80 -15 -172 -24 -630 35 -673 86 -5 7 -13 42 -17 79 l-6 65 113 -24
c63 -13 137 -28 164 -34z m635 -89 l0 -70 -59 0 -58 0 -6 62 c-3 34 -3 66 -1
70 3 4 32 8 65 8 l59 0 0 -70z m550 -5 c0 -3 -55 -32 -122 -65 -155 -75 -228
-94 -329 -87 -83 5 -289 46 -289 57 0 4 87 10 194 14 213 7 329 23 451 59 91
28 95 29 95 22z m-1355 -41 c86 -24 238 -44 416 -53 106 -6 176 -14 183 -21
16 -16 -483 -8 -539 9 -47 15 -145 71 -145 84 0 5 8 6 18 2 9 -4 40 -14 67
-21z"/>
</g>
</svg>
